<?xml version="1.0" standalone="no"?>
<!DOCTYPE svg PUBLIC "-//W3C//DTD SVG 20010904//EN"
 "http://www.w3.org/TR/2001/REC-SVG-20010904/DTD/svg10.dtd">
<svg version="1.0" xmlns="http://www.w3.org/2000/svg"
 width="1024.000000pt" height="1024.000000pt" viewBox="0 0 1024.000000 1024.000000"
 preserveAspectRatio="xMidYMid meet">
<metadata>
Created by potrace 1.11, written by Peter Selinger 2001-2013
</metadata>
<g transform="translate(0.000000,1024.000000) scale(0.100000,-0.100000)"
fill="#000000" stroke="none">
<path d="M5470 10222 c0 -5 -33 -9 -72 -10 -80 -1 -125 -5 -208 -17 -30 -5
-64 -9 -75 -9 -11 -1 -26 -5 -33 -9 -7 -5 -25 -7 -40 -6 -15 2 -34 -1 -42 -6
-8 -5 -31 -10 -50 -10 -19 -1 -42 -5 -51 -9 -10 -4 -23 -6 -30 -5 -14 2 -60
-7 -89 -18 -8 -4 -22 -7 -30 -8 -36 -4 -96 -18 -105 -25 -5 -4 -18 -6 -27 -5
-10 2 -20 -1 -24 -6 -3 -5 -16 -9 -28 -9 -13 0 -40 -7 -61 -16 -21 -8 -43 -13
-50 -10 -8 3 -19 -2 -25 -9 -7 -8 -16 -12 -21 -10 -4 3 -18 0 -31 -6 -50 -26
-58 -28 -73 -23 -8 3 -15 2 -15 -2 0 -5 -29 -18 -65 -29 -36 -10 -65 -22 -65
-26 0 -4 -9 -5 -20 -2 -12 3 -20 0 -20 -6 0 -7 -4 -10 -9 -6 -5 3 -12 1 -15
-4 -5 -8 -63 -25 -78 -22 -5 0 -8 -4 -8 -9 0 -6 -9 -10 -20 -10 -11 0 -20 -5
-20 -11 0 -5 -4 -7 -10 -4 -5 3 -10 1 -10 -4 0 -6 -9 -11 -21 -11 -11 0 -40
-11 -65 -25 -24 -13 -44 -22 -44 -19 0 4 -7 1 -15 -6 -8 -7 -15 -9 -15 -6 0 4
-15 -3 -32 -16 -18 -13 -34 -22 -36 -20 -1 1 -26 -10 -55 -25 -28 -15 -54 -28
-57 -28 -22 -5 -67 -33 -78 -48 -7 -9 -16 -16 -20 -13 -4 2 -29 -9 -57 -25
-27 -16 -58 -32 -67 -35 -10 -3 -18 -10 -18 -15 0 -5 -7 -9 -15 -9 -8 0 -15
-5 -15 -11 0 -5 -4 -8 -9 -4 -5 3 -13 0 -16 -5 -4 -6 -17 -15 -28 -21 -32 -13
-63 -34 -106 -69 -13 -11 -30 -20 -36 -20 -7 0 -15 -7 -19 -15 -3 -8 -15 -15
-26 -15 -12 0 -20 -7 -20 -16 0 -9 -6 -14 -13 -11 -8 3 -20 -3 -28 -14 -7 -10
-18 -19 -24 -19 -6 0 -18 -9 -28 -20 -9 -11 -24 -20 -32 -20 -8 0 -15 -5 -15
-10 0 -6 -11 -15 -25 -20 -14 -5 -25 -14 -25 -19 0 -5 -17 -20 -37 -32 -21
-13 -45 -30 -54 -39 -9 -8 -32 -26 -50 -40 -40 -30 -134 -112 -206 -181 -29
-27 -56 -49 -60 -49 -10 0 -383 -372 -383 -382 0 -5 -27 -35 -59 -67 -33 -33
-58 -61 -55 -63 2 -2 -14 -22 -36 -43 -22 -22 -40 -44 -40 -50 0 -5 -16 -23
-35 -40 -19 -16 -35 -35 -35 -42 0 -6 -11 -20 -25 -31 -13 -11 -22 -22 -19
-25 4 -3 -6 -17 -20 -30 -14 -13 -26 -30 -26 -36 0 -6 -7 -14 -15 -17 -8 -3
-17 -14 -20 -25 -6 -18 -28 -47 -67 -89 -9 -10 -13 -21 -10 -25 4 -4 -1 -11
-11 -16 -19 -11 -92 -119 -89 -131 1 -5 -2 -8 -7 -8 -5 0 -11 -8 -15 -17 -5
-18 -26 -53 -36 -63 -13 -12 -40 -60 -34 -60 4 0 -3 -9 -15 -19 -12 -11 -23
-23 -23 -28 -1 -17 -12 -38 -22 -45 -6 -4 -11 -11 -11 -15 -1 -8 -4 -14 -44
-83 -12 -19 -33 -60 -47 -90 -15 -30 -31 -58 -37 -61 -5 -4 -6 -12 -3 -18 4
-6 2 -11 -3 -11 -6 0 -11 -7 -11 -15 0 -8 -5 -15 -11 -15 -6 0 -9 -7 -5 -15 3
-8 1 -15 -4 -15 -6 0 -10 -7 -10 -15 0 -8 -5 -15 -11 -15 -6 0 -9 -7 -5 -15 3
-8 2 -15 -3 -15 -5 0 -12 -10 -16 -22 -9 -28 -8 -24 -25 -70 -8 -21 -18 -38
-23 -38 -5 0 -7 -9 -4 -20 3 -11 2 -20 -1 -20 -4 0 -15 -19 -25 -43 -10 -23
-25 -55 -33 -70 -8 -16 -14 -40 -14 -53 0 -17 -4 -23 -12 -18 -7 5 -9 1 -6
-13 3 -11 -1 -28 -8 -38 -8 -10 -14 -27 -14 -37 0 -10 -4 -18 -10 -18 -5 0
-10 -11 -10 -24 0 -14 -4 -27 -10 -31 -5 -3 -7 -12 -4 -19 3 -8 1 -17 -5 -21
-6 -3 -11 -15 -11 -26 0 -10 -4 -19 -9 -19 -5 0 -7 -9 -4 -20 3 -11 0 -20 -6
-20 -6 0 -10 -3 -9 -7 3 -12 -13 -87 -21 -98 -4 -5 -8 -19 -8 -30 -1 -11 -7
-33 -14 -50 -7 -16 -13 -41 -14 -54 0 -14 -6 -26 -12 -28 -6 -2 -9 -13 -6 -24
3 -10 1 -25 -4 -32 -6 -6 -9 -22 -8 -34 1 -13 -2 -23 -6 -23 -4 0 -7 -13 -7
-29 1 -15 -3 -34 -7 -42 -5 -7 -9 -25 -9 -40 -1 -15 -4 -31 -9 -35 -4 -4 -7
-22 -7 -39 0 -17 -3 -35 -7 -38 -4 -4 -6 -25 -6 -47 0 -22 -4 -40 -9 -40 -5 0
-8 -12 -7 -27 1 -16 -1 -39 -6 -53 -4 -14 -8 -38 -7 -55 0 -16 -3 -34 -8 -40
-5 -6 -7 -28 -6 -50 2 -22 -1 -48 -7 -59 -5 -10 -9 -47 -8 -82 0 -35 -3 -64
-7 -64 -5 0 -8 -45 -7 -100 0 -55 -3 -100 -7 -100 -10 0 -11 -854 -1 -864 5
-4 9 -58 10 -119 1 -62 4 -130 8 -152 3 -22 6 -47 6 -55 -3 -75 -2 -100 5
-112 5 -7 10 -40 11 -73 4 -104 12 -174 21 -192 5 -10 8 -36 6 -58 -1 -22 1
-44 5 -50 4 -5 7 -30 7 -55 -1 -25 4 -50 10 -57 6 -6 9 -23 7 -37 -3 -15 0
-32 6 -39 6 -7 9 -30 8 -50 -2 -20 0 -37 5 -37 4 0 8 -18 8 -40 0 -22 4 -40 9
-40 5 0 7 -14 6 -30 -1 -17 1 -33 6 -36 5 -3 9 -20 9 -39 0 -19 4 -36 9 -39 4
-3 7 -17 6 -31 -2 -14 1 -25 7 -25 5 0 8 -8 7 -17 -2 -10 1 -31 5 -48 16 -62
18 -71 20 -92 2 -13 6 -26 9 -30 4 -3 7 -15 7 -25 0 -10 4 -18 10 -18 5 0 10
-10 10 -23 -1 -37 12 -87 22 -87 5 0 8 -6 7 -12 -4 -24 13 -88 23 -88 6 0 8
-9 5 -20 -3 -11 -2 -20 3 -20 4 0 11 -15 15 -32 11 -47 12 -50 26 -83 7 -16
12 -33 11 -37 -1 -5 2 -8 8 -8 5 0 10 -11 10 -24 0 -14 4 -27 10 -31 5 -3 7
-12 3 -20 -3 -8 -1 -15 5 -15 5 0 13 -12 16 -27 7 -29 37 -95 47 -103 3 -3 5
-13 3 -23 -1 -9 2 -17 7 -17 5 0 9 -7 9 -15 0 -8 5 -15 11 -15 5 0 7 -5 4 -10
-3 -6 3 -24 15 -40 12 -17 18 -30 13 -30 -4 0 -3 -4 2 -8 13 -9 70 -124 67
-134 -1 -5 2 -8 7 -8 5 0 11 -8 15 -17 7 -22 28 -56 39 -64 5 -3 9 -10 9 -15
1 -15 77 -135 93 -146 5 -4 6 -8 1 -8 -5 0 1 -11 14 -25 13 -14 19 -25 14 -25
-5 0 -1 -5 9 -11 9 -5 17 -14 17 -20 0 -5 11 -22 25 -37 14 -15 25 -31 25 -35
0 -5 14 -20 30 -34 17 -13 30 -31 30 -38 0 -8 10 -22 23 -32 12 -10 32 -31 44
-48 29 -41 283 -295 295 -295 5 0 26 -18 45 -40 20 -22 39 -37 44 -34 4 2 18
-9 30 -26 13 -16 28 -30 34 -30 11 0 29 -13 82 -57 14 -12 38 -27 52 -35 14
-7 28 -16 31 -19 5 -7 47 -31 138 -82 28 -15 52 -33 52 -38 0 -5 4 -8 8 -7 9
4 186 -84 190 -94 2 -4 10 -4 18 -1 8 3 14 0 14 -6 0 -6 7 -11 15 -11 21 0 95
-33 95 -43 0 -4 4 -6 9 -2 6 3 25 -3 43 -13 18 -10 39 -17 46 -15 6 3 12 -1
12 -7 0 -7 8 -10 20 -7 11 3 20 2 20 -3 0 -4 27 -16 60 -26 33 -11 60 -22 60
-26 0 -4 9 -5 20 -3 12 2 20 -2 20 -10 0 -8 7 -11 20 -8 11 3 28 2 37 -3 23
-9 22 -9 58 -18 17 -4 37 -11 45 -15 8 -4 25 -6 38 -5 12 2 22 -1 22 -8 0 -6
3 -9 6 -6 3 4 20 2 37 -4 18 -6 42 -10 55 -9 12 0 22 -4 22 -10 0 -7 11 -9 26
-6 14 2 31 -1 37 -7 7 -6 28 -12 47 -13 19 -1 49 -4 65 -7 17 -4 50 -9 75 -12
25 -4 50 -10 55 -14 6 -4 28 -7 50 -5 22 1 45 -1 50 -5 16 -12 75 -17 75 -7 0
6 8 3 18 -5 11 -10 39 -14 85 -13 37 0 67 -3 67 -6 0 -4 39 -8 86 -8 47 -1 91
-4 97 -8 16 -10 698 -10 704 0 2 4 26 7 54 7 27 0 49 4 49 9 0 5 15 8 33 7 17
-2 37 1 43 5 6 5 25 9 42 11 18 1 32 5 32 8 0 3 15 6 33 7 51 3 97 14 97 24 0
5 11 7 25 5 13 -3 27 0 30 5 4 5 19 9 36 9 16 0 29 5 29 11 0 5 5 7 10 4 6 -4
17 -1 25 5 8 7 24 10 35 7 11 -3 20 -2 20 1 0 4 28 16 63 26 34 11 67 23 72
27 6 3 18 5 28 4 9 -2 17 1 17 6 0 5 9 9 20 9 11 0 20 4 20 9 0 4 11 7 25 6
14 -2 25 1 25 6 0 5 9 9 19 9 11 0 23 5 26 10 4 6 11 8 16 5 5 -4 9 -1 9 6 0
6 8 9 20 6 10 -3 20 -1 22 4 2 5 13 11 24 13 12 3 30 9 40 14 16 9 37 18 64
27 3 1 13 5 23 8 9 4 25 10 35 14 9 3 20 5 25 5 4 -1 7 2 7 7 0 5 16 12 35 15
19 4 35 11 35 15 0 5 12 12 28 17 35 10 31 8 77 29 70 31 90 38 98 37 4 -1 7
3 7 9 0 5 4 8 9 4 6 -3 13 1 18 9 4 8 11 15 16 15 4 1 10 2 15 2 4 1 12 2 17
3 6 0 57 24 115 52 212 104 285 138 293 136 4 -1 7 2 7 7 0 7 36 22 49 20 2 0
7 3 10 8 3 4 54 32 114 61 59 30 107 58 107 63 0 5 3 8 8 7 4 -1 45 17 91 40
l83 42 24 -23 c13 -12 24 -26 24 -32 0 -5 12 -21 25 -34 14 -13 23 -26 20 -29
-5 -6 46 -52 58 -52 5 0 5 -5 2 -11 -4 -6 13 -29 36 -52 24 -23 54 -56 67 -72
34 -44 281 -293 286 -288 2 2 34 -26 71 -64 37 -37 71 -68 75 -68 5 0 25 -17
45 -37 20 -21 40 -38 45 -38 4 0 21 -13 36 -29 15 -17 31 -28 35 -25 4 2 14
-4 21 -13 16 -22 73 -63 87 -63 6 0 14 -6 18 -13 9 -14 41 -35 66 -43 9 -4 17
-11 17 -17 0 -6 3 -8 6 -4 4 3 32 -8 63 -24 55 -30 57 -30 186 -25 163 5 163
5 170 17 4 5 19 9 35 9 16 0 32 5 35 10 4 6 11 8 16 5 5 -4 9 -2 9 3 0 5 13
12 30 15 16 4 49 19 72 34 24 15 47 27 51 28 4 0 11 5 15 10 4 6 23 22 43 37
41 30 167 155 187 184 6 11 16 29 22 42 5 12 14 22 19 22 5 0 12 13 16 30 4
16 11 30 16 30 6 0 9 6 8 13 -1 6 4 26 11 42 7 17 14 38 14 47 1 9 4 20 9 24
4 4 7 20 7 36 0 15 4 28 9 28 5 0 8 26 7 58 -2 31 2 70 7 86 7 20 6 35 -2 48
-6 10 -9 23 -6 28 4 6 1 10 -4 10 -6 0 -11 11 -11 25 0 14 -5 25 -10 25 -6 0
-9 3 -8 8 2 9 -9 38 -29 79 -8 17 -12 36 -9 42 4 6 0 11 -8 11 -10 0 -13 6
-10 15 4 8 1 15 -5 15 -6 0 -10 3 -9 7 1 5 -8 29 -20 56 -12 26 -32 68 -44 95
-12 26 -21 53 -20 60 2 6 -2 12 -9 12 -6 0 -9 7 -5 15 3 8 1 15 -4 15 -6 0
-10 7 -10 15 0 8 -4 15 -10 15 -5 0 -10 10 -10 23 0 12 -7 33 -16 45 -8 12
-12 22 -9 22 4 0 -2 15 -12 33 -11 18 -19 40 -17 50 1 9 -2 17 -6 17 -5 0 -12
16 -16 35 -3 19 -10 35 -15 35 -5 0 -9 7 -9 15 0 8 -4 15 -9 15 -5 0 -8 8 -7
17 2 10 -5 31 -14 48 -9 16 -15 36 -13 43 3 6 -1 12 -7 12 -7 0 -10 6 -7 14 3
8 -1 20 -8 26 -8 7 -13 16 -10 20 3 5 1 11 -5 15 -6 4 -8 11 -5 16 4 5 -2 21
-12 37 -11 15 -19 34 -18 42 0 8 -7 23 -17 34 -9 10 -14 24 -12 31 3 7 1 16
-5 20 -6 3 -11 17 -11 31 0 13 -5 24 -11 24 -5 0 -8 4 -4 9 3 5 1 12 -5 16 -5
3 -10 14 -10 23 0 9 -10 37 -22 62 -11 25 -22 52 -24 60 -7 39 -11 49 -25 71
-9 13 -15 32 -13 41 1 10 -1 18 -6 18 -6 0 -15 28 -21 68 0 4 -5 13 -11 20 -6
6 -7 12 -2 12 5 0 3 4 -4 9 -7 4 -14 18 -15 29 -1 12 -5 22 -10 22 -5 0 -7 9
-4 20 3 11 1 20 -4 20 -5 0 -9 7 -9 15 0 8 -4 23 -10 33 -8 13 -30 87 -34 112
-1 3 -6 12 -11 20 -5 8 -10 20 -10 25 0 6 -6 27 -14 48 -7 21 -10 44 -8 52 3
7 -1 16 -8 19 -8 3 -12 12 -9 20 3 8 1 17 -5 21 -6 3 -11 19 -11 35 0 16 -4
31 -9 34 -5 4 -8 14 -6 24 1 9 -2 23 -7 29 -6 7 -8 19 -5 28 4 8 2 17 -3 20
-6 4 -10 19 -10 36 0 16 -5 29 -11 29 -6 0 -9 14 -6 35 3 19 1 35 -3 35 -8 0
-18 63 -22 138 -1 23 -6 42 -10 42 -4 0 -8 18 -8 39 0 22 -4 42 -8 45 -5 3 -8
32 -8 65 1 33 -2 57 -7 54 -4 -3 -7 22 -6 54 1 33 -2 66 -7 74 -4 8 -9 48 -9
89 0 41 -3 80 -7 85 -3 6 -6 59 -6 118 0 58 -4 112 -8 119 -12 19 -12 1589 -1
1612 6 11 9 122 8 247 0 125 3 230 7 233 5 3 8 80 7 173 0 92 3 170 7 173 10
7 13 114 4 129 -4 6 -4 11 1 11 4 0 6 29 5 65 -2 36 0 65 5 65 5 0 10 46 11
103 5 186 13 307 20 307 4 0 7 28 6 63 0 34 2 67 6 72 4 6 7 24 7 40 0 17 3
57 8 90 11 77 14 110 18 165 2 25 8 54 13 65 6 11 9 35 8 53 -1 17 2 32 7 32
5 0 7 14 5 30 -2 17 0 33 5 36 5 3 9 21 9 40 0 19 4 34 9 34 4 0 8 12 7 28 -1
16 8 35 22 48 12 12 22 26 22 32 0 6 6 15 13 19 32 20 96 143 101 195 1 4 6
12 13 19 6 6 9 18 6 25 -3 8 -1 20 4 27 12 16 8 233 -5 275 -8 24 -8 32 1 32
7 0 4 7 -5 14 -10 7 -15 16 -11 19 3 4 1 12 -4 19 -6 7 -13 27 -17 43 -8 35
-37 97 -50 106 -5 4 -5 12 -2 18 4 6 2 11 -3 11 -6 0 -11 4 -11 10 0 15 -91
141 -106 147 -8 3 -14 11 -14 18 0 23 -152 166 -265 249 -11 9 -35 27 -52 41
-18 15 -33 23 -33 19 0 -4 -8 3 -19 14 -10 12 -21 18 -25 14 -4 -4 -12 1 -17
11 -6 9 -17 17 -24 17 -8 0 -15 5 -15 10 0 6 -6 10 -14 10 -7 0 -19 7 -26 15
-7 8 -16 12 -21 9 -5 -3 -9 -1 -9 3 0 8 -9 14 -66 43 -16 8 -32 19 -35 24 -4
5 -12 5 -18 2 -6 -4 -11 -3 -11 3 0 9 -26 21 -44 20 -5 0 -12 3 -15 8 -3 5
-37 25 -76 43 -38 19 -72 38 -73 43 -2 4 -8 5 -12 2 -5 -3 -24 3 -43 14 -19
11 -38 17 -41 14 -3 -4 -6 -2 -6 4 0 6 -16 14 -35 17 -19 4 -35 11 -35 17 0 5
-6 9 -12 8 -7 -1 -24 2 -38 8 -14 6 -29 12 -35 13 -5 1 -27 11 -48 21 -21 11
-42 17 -47 14 -6 -3 -10 -2 -10 3 0 11 -37 25 -57 23 -7 -1 -13 3 -13 9 0 5
-11 10 -25 10 -14 0 -25 5 -25 11 0 5 -5 7 -10 4 -6 -4 -16 -2 -23 3 -9 7 -69
30 -97 37 -50 13 -67 18 -80 22 -71 27 -116 41 -122 37 -3 -2 -9 0 -13 6 -3 5
-16 10 -29 10 -12 0 -26 3 -30 7 -4 4 -17 8 -29 10 -12 1 -47 10 -77 19 -30 9
-67 17 -81 19 -14 2 -35 8 -46 14 -11 5 -23 8 -26 4 -3 -3 -14 -2 -24 2 -10 5
-28 9 -40 10 -12 0 -25 4 -29 8 -4 4 -24 7 -45 7 -21 0 -41 5 -44 10 -4 6 -21
10 -39 8 -17 -1 -37 2 -44 6 -7 4 -33 8 -57 8 -25 0 -45 3 -45 7 0 5 -27 7
-61 6 -33 0 -62 2 -65 7 -7 10 -734 10 -734 0z"/>
</g>
</svg>
